<svg xmlns="http://www.w3.org/2000/svg" viewBox="0 0 750 500"><g id="freepik--Shadow--inject-11"><ellipse cx="375" cy="402.54" rx="328.77" ry="41.32" style="fill:#ebebeb"></ellipse></g><g id="freepik--Floor--inject-11"><polygon points="50.72 348.19 131.79 347.95 212.86 347.86 375 347.69 537.14 347.86 618.21 347.95 699.28 348.19 618.21 348.44 537.14 348.52 375 348.69 212.86 348.52 131.79 348.43 50.72 348.19" style="fill:#263238"></polygon></g><g id="freepik--Computer--inject-11"><rect x="180.53" y="102.44" width="388.19" height="259.67" style="fill:#dbdbdb"></rect><rect x="183.35" y="105.61" width="382.55" height="253.33" style="fill:#263238"></rect><rect x="129.97" y="381.58" width="489.31" height="17.82" style="fill:#c7c7c7"></rect><polygon points="129.97 381.58 180.53 362.11 568.72 362.11 619.28 381.58 129.97 381.58" style="fill:#dbdbdb"></polygon><polygon points="185.05 374.68 217.68 362.11 531.58 362.11 564.21 374.68 185.05 374.68" style="fill:#263238"></polygon><rect x="204.97" y="124.86" width="339.31" height="214.84" style="fill:#fff"></rect><rect x="204.69" y="124.86" width="339.6" height="8.27" style="fill:#455a64"></rect><path d="M211.26,129a2.05,2.05,0,1,1-2-2.05A2.05,2.05,0,0,1,211.26,129Z" style="fill:#c7c7c7"></path><path d="M219.63,129a2.05,2.05,0,1,1-2-2.05A2.05,2.05,0,0,1,219.63,129Z" style="fill:#fff"></path><path d="M228,129a2.05,2.05,0,1,1-2.05-2.05A2.05,2.05,0,0,1,228,129Z" style="fill:#C6FF00"></path><rect x="221.27" y="150.51" width="131.95" height="92.41" transform="translate(574.49 393.42) rotate(180)" style="fill:#ebebeb"></rect><path d="M236.69,176.77a10.93,10.93,0,1,0,10.93-10.93A10.93,10.93,0,0,0,236.69,176.77Z" style="fill:#dbdbdb"></path><polygon points="279.84 223 353.23 223 316.53 173.27 279.84 223" style="fill:#c7c7c7"></polygon><polygon points="251.1 223.05 311.68 223.05 281.39 190.66 251.1 223.05" style="fill:#dbdbdb"></polygon><rect x="221.27" y="223" width="131.95" height="19.91" style="fill:#dbdbdb"></rect><rect x="372" y="255.28" width="73.73" height="66.71" transform="translate(817.72 577.28) rotate(180)" style="fill:#ebebeb"></rect><path d="M381.52,269.87a7.9,7.9,0,1,0,6.2-6.2A7.9,7.9,0,0,0,381.52,269.87Z" style="fill:#dbdbdb"></path><polygon points="392.75 307.62 445.73 307.62 419.24 271.72 392.75 307.62" style="fill:#c7c7c7"></polygon><polygon points="372 307.65 415.74 307.65 393.87 284.27 372 307.65" style="fill:#dbdbdb"></polygon><rect x="372" y="307.62" width="73.73" height="14.37" style="fill:#dbdbdb"></rect><rect x="372" y="150.51" width="118.27" height="5.97" style="fill:#a6a6a6"></rect><rect x="372" y="162.86" width="143.99" height="5.97" style="fill:#dbdbdb"></rect><rect x="372" y="175.21" width="143.99" height="5.97" style="fill:#dbdbdb"></rect><rect x="372" y="187.57" width="143.99" height="5.97" style="fill:#dbdbdb"></rect><rect x="372" y="199.92" width="143.99" height="5.97" style="fill:#dbdbdb"></rect><rect x="372" y="212.27" width="95.59" height="5.97" style="fill:#dbdbdb"></rect><rect x="452.3" y="255.28" width="52.31" height="5.88" style="fill:#a6a6a6"></rect><rect x="452.3" y="267.45" width="63.68" height="5.88" style="fill:#dbdbdb"></rect><rect x="452.3" y="279.62" width="63.68" height="5.88" style="fill:#dbdbdb"></rect><rect x="452.3" y="291.78" width="63.68" height="5.88" style="fill:#dbdbdb"></rect><rect x="452.3" y="303.95" width="63.68" height="5.88" style="fill:#dbdbdb"></rect><rect x="452.3" y="316.12" width="43.22" height="5.88" style="fill:#dbdbdb"></rect><rect x="372" y="225.37" width="143.99" height="17.54" style="fill:#C6FF00"></rect><rect x="221.27" y="255.28" width="131.95" height="17.54" style="fill:#a6a6a6"></rect><rect x="221.27" y="279.21" width="131.95" height="5.93" style="fill:#dbdbdb"></rect><rect x="221.27" y="291.49" width="131.95" height="5.93" style="fill:#dbdbdb"></rect><rect x="221.27" y="303.78" width="131.95" height="5.93" style="fill:#dbdbdb"></rect><rect x="221.27" y="316.06" width="90.41" height="5.93" style="fill:#dbdbdb"></rect><rect x="535.21" y="133.12" width="9.07" height="206.57" style="fill:#dbdbdb"></rect><path d="M539.74,241.23h0a2.34,2.34,0,0,1-2.34-2.34V137.51a2.34,2.34,0,0,1,2.34-2.34h0a2.34,2.34,0,0,1,2.34,2.34V238.89A2.34,2.34,0,0,1,539.74,241.23Z" style="fill:#a6a6a6"></path></g><g id="freepik--Tablet--inject-11"><path d="M335.06,241V387.58a11.93,11.93,0,0,1-12,11.82H92.66a11.93,11.93,0,0,1-12-11.82V241a11.92,11.92,0,0,1,12-11.81H323A11.92,11.92,0,0,1,335.06,241Z" style="fill:#455a64"></path><rect x="98.6" y="236.34" width="218.99" height="155.68" style="fill:#fff"></rect><rect x="111.63" y="247.2" width="97.15" height="68.03" transform="translate(320.41 562.42) rotate(180)" style="fill:#ebebeb"></rect><path d="M123,266.54a8,8,0,1,0,8-8.05A8,8,0,0,0,123,266.54Z" style="fill:#dbdbdb"></path><polygon points="154.75 300.57 208.78 300.57 181.76 263.96 154.75 300.57" style="fill:#c7c7c7"></polygon><polygon points="133.59 300.6 178.19 300.6 155.89 276.76 133.59 300.6" style="fill:#dbdbdb"></polygon><rect x="111.63" y="300.57" width="97.15" height="14.66" style="fill:#dbdbdb"></rect><rect x="239.6" y="334.38" width="64.96" height="45.49" transform="translate(544.16 714.24) rotate(180)" style="fill:#ebebeb"></rect><path d="M247.19,347.31a5.39,5.39,0,1,0,5.39-5.38A5.38,5.38,0,0,0,247.19,347.31Z" style="fill:#dbdbdb"></path><polygon points="268.44 370.06 304.56 370.06 286.5 345.58 268.44 370.06" style="fill:#c7c7c7"></polygon><polygon points="254.29 370.09 284.11 370.09 269.2 354.14 254.29 370.09" style="fill:#dbdbdb"></polygon><rect x="239.6" y="370.07" width="64.96" height="9.8" style="fill:#dbdbdb"></rect><rect x="217.16" y="247.2" width="87.41" height="16.62" style="fill:#C6FF00"></rect><rect x="217.16" y="270.13" width="87.41" height="2.33" style="fill:#dbdbdb"></rect><rect x="217.16" y="275.6" width="87.41" height="2.33" style="fill:#dbdbdb"></rect><rect x="217.16" y="281.07" width="87.41" height="2.33" style="fill:#dbdbdb"></rect><rect x="217.16" y="286.54" width="87.41" height="2.33" style="fill:#dbdbdb"></rect><rect x="217.16" y="292.01" width="87.41" height="2.33" style="fill:#dbdbdb"></rect><rect x="217.16" y="297.48" width="87.41" height="2.33" style="fill:#dbdbdb"></rect><rect x="217.16" y="302.95" width="50.25" height="2.33" style="fill:#dbdbdb"></rect><rect x="142.95" y="367.2" width="87.41" height="2.33" style="fill:#dbdbdb"></rect><rect x="142.95" y="334.38" width="87.41" height="2.33" style="fill:#dbdbdb"></rect><rect x="142.95" y="339.85" width="87.41" height="2.33" style="fill:#dbdbdb"></rect><rect x="142.95" y="345.32" width="87.41" height="2.33" style="fill:#dbdbdb"></rect><rect x="142.95" y="350.79" width="59.61" height="2.33" style="fill:#dbdbdb"></rect><rect x="142.95" y="361.73" width="87.41" height="2.33" style="fill:#dbdbdb"></rect><rect x="142.95" y="372.67" width="59.61" height="2.33" style="fill:#dbdbdb"></rect><rect x="111.63" y="322.82" width="192.94" height="5.5" style="fill:#455a64"></rect><rect x="111.63" y="334.38" width="24.98" height="45.49" style="fill:#C6FF00"></rect><rect x="89.8" y="295.76" width="2.65" height="37.05" rx="1.25" style="fill:#37474f"></rect><path d="M332,314.28a4.8,4.8,0,1,1-4.79-4.79A4.8,4.8,0,0,1,332,314.28Z" style="fill:#37474f"></path></g><g id="freepik--Mobile--inject-11"><path d="M654.11,197.8H565a9.1,9.1,0,0,0-9,9.18v183.4a9.11,9.11,0,0,0,9,9.18h89.09a9.11,9.11,0,0,0,9-9.18V207A9.1,9.1,0,0,0,654.11,197.8Zm3.39,186.91c0,4.83-3.62,8.73-8.08,8.73h-79.7c-4.47,0-8.08-3.9-8.08-8.73V213.93c0-9.83,3.61-10.31,8.08-10.31h16c.93,0,1.69,1,1.69,2.36v.56c0,3.07,1.68,3.08,3.74,3.08H628c2.07,0,3.73,0,3.73-3.08V206c0-1.31.75-2.36,1.7-2.36h16c4.46,0,8.08,1.31,8.08,10.31Z" style="fill:#455a64"></path><path d="M614.6,205.79H604.53a.62.62,0,0,1-.62-.62h0a.62.62,0,0,1,.62-.62H614.6a.63.63,0,0,1,.63.62h0A.63.63,0,0,1,614.6,205.79Z" style="fill:#fff"></path><path d="M657.5,213.93V384.71c0,4.83-3.62,8.73-8.08,8.73h-79.7c-4.47,0-8.08-3.9-8.08-8.73V213.93c0-9.83,3.61-10.31,8.08-10.31h16c.93,0,1.69,1,1.69,2.36v.56c0,3.07,1.68,3.08,3.74,3.08H628c2.07,0,3.73,0,3.73-3.08V206c0-1.31.75-2.36,1.7-2.36h16C653.88,203.62,657.5,204.93,657.5,213.93Z" style="fill:#fff"></path><path d="M657.5,213.93v12.74H561.63V213.93c0-9.83,3.62-10.31,8.09-10.31h16c.92,0,1.68,1,1.68,2.36v.56c0,3.07,1.68,3.08,3.73,3.08H628c2.07,0,3.74,0,3.74-3.08V206c0-1.31.75-2.36,1.69-2.36h16C653.88,203.62,657.5,204.93,657.5,213.93Z" style="fill:#C6FF00"></path><polygon points="570.72 220.45 567.89 217.8 570.72 215.15 571.16 215.61 568.83 217.8 571.16 219.99 570.72 220.45" style="fill:#fff"></polygon><path d="M648.85,220.69h-2V220a.1.1,0,0,0-.06-.09l-.22-.13a.14.14,0,0,0-.11,0l-.61.36-1-1.73.61-.35a.09.09,0,0,0,0-.11v-.24a.09.09,0,0,0,0-.11l-.61-.35,1-1.73.61.35a.11.11,0,0,0,.11,0l.22-.13a.1.1,0,0,0,.06-.09v-.71h2v.71a.1.1,0,0,0,.06.09l.22.13a.11.11,0,0,0,.11,0l.61-.35,1,1.73-.61.35a.09.09,0,0,0,0,.11v.24a.09.09,0,0,0,0,.11l.61.35-1,1.73-.61-.35a.11.11,0,0,0-.11,0l-.22.13a.1.1,0,0,0-.06.09Zm-1.5-.5h1V220a.62.62,0,0,1,.33-.54,1,1,0,0,0,.17-.1.64.64,0,0,1,.64,0l.18.11.5-.87-.18-.11a.59.59,0,0,1-.3-.55v-.2a.61.61,0,0,1,.3-.56l.18-.1-.5-.87-.18.11a.62.62,0,0,1-.63,0l-.18-.1a.62.62,0,0,1-.33-.54v-.21h-1v.21a.62.62,0,0,1-.33.54,1,1,0,0,0-.17.1.64.64,0,0,1-.64,0l-.18-.11-.5.87.18.1a.61.61,0,0,1,.3.56v.2a.61.61,0,0,1-.3.56l-.18.1.5.87.18-.11a.64.64,0,0,1,.64,0,1,1,0,0,0,.17.1.62.62,0,0,1,.33.54Zm.5-.91a1.48,1.48,0,1,1,1.48-1.48A1.49,1.49,0,0,1,647.85,219.28Zm0-2.46a1,1,0,1,0,1,1A1,1,0,0,0,647.85,216.82Z" style="fill:#fff"></path><g id="freepik--u5Zjqx--inject-11"><path d="M582.93,207.45l-.15.16-.09.09a2.1,2.1,0,0,0-3,0l-.08-.09-.15-.15h0a1.54,1.54,0,0,1,.19-.17,2.16,2.16,0,0,1,.45-.29,2.49,2.49,0,0,1,.6-.2l.3,0h.46a2.59,2.59,0,0,1,.55.13,2.53,2.53,0,0,1,.37.18,2.25,2.25,0,0,1,.36.24l.16.15Z" style="fill:#fff"></path><path d="M580.2,208.18l-.24-.24a1.75,1.75,0,0,1,2.48,0l-.24.25a1.42,1.42,0,0,0-2,0Z" style="fill:#fff"></path><path d="M582,208.42l-.24.25a.7.7,0,0,0-1,0l-.24-.25A1.06,1.06,0,0,1,582,208.42Z" style="fill:#fff"></path><path d="M581.42,208.89a.22.22,0,1,1-.22-.22A.21.21,0,0,1,581.42,208.89Z" style="fill:#fff"></path></g><path d="M567.89,207.92a.63.63,0,0,1,.63-.63.64.64,0,0,1,.64.63.64.64,0,0,1-.64.64A.64.64,0,0,1,567.89,207.92Z" style="fill:#fff"></path><path d="M569.89,207.92a.63.63,0,0,1,.63-.63.64.64,0,0,1,.64.63.64.64,0,0,1-.64.64A.64.64,0,0,1,569.89,207.92Z" style="fill:#fff"></path><path d="M571.89,207.92a.64.64,0,0,1,1.27,0,.64.64,0,1,1-1.27,0Z" style="fill:#fff"></path><path d="M573.89,207.92a.64.64,0,1,1,.64.64A.64.64,0,0,1,573.89,207.92Z" style="fill:#fff"></path><path d="M575.89,207.92a.64.64,0,0,1,.64-.63.63.63,0,0,1,.63.63.64.64,0,0,1-.63.64A.64.64,0,0,1,575.89,207.92Z" style="fill:#fff"></path><path d="M650.3,209.3h-5.16v-2.38h5.16Zm-4.91-.25h4.66v-1.88h-4.66Z" style="fill:#fff"></path><rect x="645.56" y="207.32" width="3.33" height="1.58" style="fill:#fff"></rect><rect x="650.31" y="207.47" width="0.46" height="1.28" style="fill:#fff"></rect><polygon points="576.2 383 575.47 383 575.47 386.35 574.11 386.35 574.11 384.64 571.7 384.64 571.7 386.35 570.34 386.35 570.34 383 569.61 383 572.91 379.6 576.2 383" style="fill:#ebebeb"></polygon><rect x="641.59" y="379.6" width="7.95" height="1.14" style="fill:#ebebeb"></rect><rect x="641.59" y="382.4" width="7.95" height="1.14" style="fill:#ebebeb"></rect><rect x="641.59" y="385.21" width="7.95" height="1.14" style="fill:#ebebeb"></rect><path d="M576.05,243.44a5.32,5.32,0,0,1-5.63,0,5.35,5.35,0,1,1,5.63,0Z" style="fill:#dbdbdb"></path><path d="M574.86,238.28a1.63,1.63,0,1,1-1.62-1.63A1.63,1.63,0,0,1,574.86,238.28Z" style="fill:#fff"></path><path d="M576.05,242.77v.67a5.32,5.32,0,0,1-5.63,0v-.67a2.82,2.82,0,0,1,5.63,0Z" style="fill:#fff"></path><rect x="585.29" y="233.85" width="34" height="2.8" style="fill:#ebebeb"></rect><rect x="585.29" y="238.52" width="29.68" height="1.86" style="fill:#ebebeb"></rect><rect x="585.29" y="242.1" width="49.07" height="1.86" style="fill:#ebebeb"></rect><rect x="561.64" y="248.67" width="95.86" height="67.12" transform="translate(1219.14 564.46) rotate(180)" style="fill:#ebebeb"></rect><path d="M572.84,267.75a7.94,7.94,0,1,0,7.94-7.94A7.94,7.94,0,0,0,572.84,267.75Z" style="fill:#dbdbdb"></path><polygon points="604.2 301.33 657.5 301.33 630.85 265.2 604.2 301.33" style="fill:#c7c7c7"></polygon><polygon points="583.3 301.36 627.31 301.36 605.3 277.84 583.3 301.36" style="fill:#dbdbdb"></polygon><rect x="561.64" y="301.33" width="95.86" height="14.46" style="fill:#dbdbdb"></rect><path d="M576.05,351.18a5.32,5.32,0,0,1-5.63,0,5.35,5.35,0,1,1,5.63,0Z" style="fill:#dbdbdb"></path><circle cx="573.24" cy="346.02" r="1.63" style="fill:#fff"></circle><path d="M576.05,350.51v.67a5.32,5.32,0,0,1-5.63,0v-.67a2.82,2.82,0,0,1,5.63,0Z" style="fill:#fff"></path><rect x="585.29" y="341.59" width="43.72" height="2.8" style="fill:#ebebeb"></rect><rect x="585.29" y="346.26" width="55.82" height="1.86" style="fill:#ebebeb"></rect><rect x="585.29" y="349.84" width="19.01" height="1.86" style="fill:#ebebeb"></rect><rect x="561.64" y="356.41" width="95.84" height="16.39" style="fill:#ebebeb"></rect><path d="M588.25,372.81H573.31a7.93,7.93,0,0,1,14.94,0Z" style="fill:#dbdbdb"></path><path d="M568.08,323.65a3.17,3.17,0,1,1,3.83,2.33A3.16,3.16,0,0,1,568.08,323.65Z" style="fill:#ebebeb"></path><g id="freepik--xsrjP0--inject-11"><path d="M570.73,324.16c-.09-.05-.16-.13-.27-.12s0,0,0-.05v-1.27a.06.06,0,0,1,0-.07c.32-.16.46-.48.66-.76a1.27,1.27,0,0,0,.23-1c0-.09,0-.13.12-.15a.2.2,0,0,1,.24.07,1.6,1.6,0,0,1,.18.56,1.88,1.88,0,0,1,0,.47c0,.12-.05.23-.07.35s.06,0,.09,0h1.07c.15,0,.23,0,.25.14a.29.29,0,0,1-.16.31s-.07,0-.07.05,0,0,.07.05.1.27,0,.38-.1,0-.1.06.06,0,.09.08a.24.24,0,0,1-.1.37l-.07,0s0,0,0,.05a.21.21,0,0,1,0,.38l0,0a.31.31,0,0,1-.19,0h-1.68A.18.18,0,0,1,570.73,324.16Z" style="fill:#fff;fill-rule:evenodd"></path><path d="M569.13,323.42c0-.27,0-.54,0-.81,0-.05,0-.08.08-.08.32,0,.65,0,1,0,.06,0,.07,0,.07.08v1.62c0,.07,0,.09-.09.09h-.95c-.08,0-.09,0-.09-.1C569.14,324,569.13,323.69,569.13,323.42Z" style="fill:#fff;fill-rule:evenodd"></path></g><path d="M574.74,323.65a3.17,3.17,0,1,1,3.84,2.33A3.16,3.16,0,0,1,574.74,323.65Z" style="fill:#C6FF00"></path><path d="M579.44,323.3a1.62,1.62,0,0,1-3.24,0,1.28,1.28,0,0,1,.49-1.87c.9-.27,1.13,1.3,1.13,1.3s.23-1.57,1.14-1.3C579.59,321.62,579.84,322.49,579.44,323.3Z" style="fill:#fff"></path><rect x="585.82" y="322.49" width="45.03" height="1.83" style="fill:#ebebeb"></rect><polygon points="561.64 333.42 573.62 333.24 585.6 333.14 609.56 333.05 633.52 333.14 645.5 333.24 657.48 333.42 645.5 333.61 633.52 333.71 609.56 333.8 585.6 333.71 573.62 333.61 561.64 333.42" style="fill:#ebebeb"></polygon></g></svg>